<svg xmlns="http://www.w3.org/2000/svg" viewBox="6824.448 4345.239 18.729 19.29"><defs><style>.a{fill:#795548;}</style></defs><path class="a" d="M14.016,17.847,9.645,13.6l-4.37,4.244a3.155,3.155,0,0,1-4.369,0,2.938,2.938,0,0,1,0-4.243l4.37-4.244L.907,5.119a2.94,2.94,0,0,1,0-4.243,3.155,3.155,0,0,1,4.369,0L9.645,5.118,14.013.877a3.155,3.155,0,0,1,4.369,0,2.938,2.938,0,0,1,0,4.243L14.015,9.361,18.385,13.6a2.94,2.94,0,0,1,0,4.243,3.155,3.155,0,0,1-4.37,0Z" transform="translate(6843.174 4345.239) rotate(90)"/></svg>