<svg xmlns="http://www.w3.org/2000/svg" viewBox="-4637.693 4812.635 15.439 27.965"><defs><style>.a{fill:#a1887f;}</style></defs><path class="a" d="M9.642,27.96h-4.6a1.052,1.052,0,0,1-1.052-1.052V16.08H1.052A1.052,1.052,0,0,1,0,15.027V10.589A1.052,1.052,0,0,1,1.052,9.565H3.989V7.078A6.992,6.992,0,0,1,5.9,1.913,6.859,6.859,0,0,1,10.914,0,27.253,27.253,0,0,1,14.54.182a1.052,1.052,0,0,1,.9,1.043v3.96a1.052,1.052,0,0,1-1.09,1.052H12.024c-.89,0-1.071.21-1.081.22a1.8,1.8,0,0,0-.249,1.081V9.565h3.96l.354.363a1.052,1.052,0,0,1,.249.832L14.674,15.2a1.052,1.052,0,0,1-1.043.957H10.694V26.908A1.052,1.052,0,0,1,9.642,27.96ZM5.9,26.047h2.87V15.219a1.052,1.052,0,0,1,1.052-1.052h3.042l.373-2.688H9.833a1.052,1.052,0,0,1-1.052-1.052V7.557A3.511,3.511,0,0,1,9.47,5.232a3.128,3.128,0,0,1,2.554-.909h1.5V2a23.336,23.336,0,0,0-2.611-.086,4.955,4.955,0,0,0-3.664,1.33A5.108,5.108,0,0,0,5.912,7.069v3.319a1.052,1.052,0,0,1-1.062,1.09H1.913V14.2H4.85A1.052,1.052,0,0,1,5.9,15.247ZM12.78,14.913ZM14.272,2.076Z" transform="translate(-4637.693 4812.64)"/></svg>