<svg xmlns="http://www.w3.org/2000/svg" xmlns:xlink="http://www.w3.org/1999/xlink" viewBox="4128.73 1353.805 459.229 508.092"><defs><style>.a,.j{fill:#fff;}.b,.c,.d,.e{fill:none;}.b,.d,.e{stroke:#d7ccc8;}.b{stroke-width:7px;}.c{stroke:#a1887f;stroke-width:10px;}.d{stroke-width:5px;}.f{fill:#d7ccc8;}.g{fill:#a1887f;}.g,.j{font-size:20px;font-family:Lato-Heavy, Lato;font-weight:800;}.h,.i{fill:#9ccc65;}.h{opacity:0.25;}.k{filter:url(#a);}</style><filter id="a" x="4289" y="1416" width="62" height="62" filterUnits="userSpaceOnUse"><feOffset dy="3" input="SourceAlpha"/><feGaussianBlur stdDeviation="3" result="b"/><feFlood flood-opacity="0.161"/><feComposite operator="in" in2="b"/><feComposite in="SourceGraphic"/></filter></defs><g transform="translate(3354 946)"><g transform="translate(44.8 56.975)"><path class="a" d="M16447.205,896.491h149.744V876h127.676v20.491h143.438v157.624h-207.6V1200.59h208.367v155.239h-145.275v19.094h-129.5V1355h-146.937V1251.229h-28.225V1003.844h29.057Z" transform="translate(-15683.902 -521)"/><line class="b" y2="138.709" transform="translate(1184.159 537.098)"/><g transform="translate(734.931 355.831)"><path class="c" d="M16453,896.491h149.742V876h127.676v20.491h143.438v157.624h-167.082" transform="translate(-16424.627 -876)"/><path class="c" d="M16612.221,989H16587" transform="translate(-16345.835 -810.885)"/><path class="c" d="M16588,876v190.725" transform="translate(-16346.835 -876)"/><path class="c" d="M16588,1007v14.186" transform="translate(-16346.835 -800.513)"/><path class="c" d="M16665.793,1080.9h-55.172v-45.711h-48.859V991.058h-23.645V937.466H16453l.074-52.5v-1.357" transform="translate(-16424.627 -868.112)"/><path class="c" d="M16463.371,920v56.745H16435v247.47h28.371v105.608h146.59v18.915h129.254v-18.915h145.012V1173.774h-165.5" transform="translate(-16435 -850.645)"/><path class="c" d="M16614.795,1081H16588" transform="translate(-16346.835 -757.871)"/><path class="c" d="M16588,1072v189.148" transform="translate(-16346.835 -763.057)"/><path class="c" d="M16588,1101h63.049v31.525h63.051v93" transform="translate(-16346.835 -746.346)"/><path class="c" d="M16618.4,1104.457V1095" transform="translate(-16329.317 -749.804)"/><path class="c" d="M16453,1201.438h86.691v-52.016h23.645v-44.135h47.285V1058h55.172v7.408" transform="translate(-16424.627 -771.124)"/><path class="c" d="M16588,1053.4v7.251" transform="translate(-16346.835 -773.775)"/><path class="c" d="M16588,1054.776V1025.3" transform="translate(-16346.835 -789.967)"/><path class="c" d="M16676.164,1034H16435" transform="translate(-16435 -784.954)"/></g><g transform="translate(1032.84 556.013)"><path class="d" d="M16631.3,1050.677h-6.3V1016h78.811" transform="translate(-16623.424 -995.509)"/><path class="d" d="M16647.457,1016v34.677H16638" transform="translate(-16615.932 -995.509)"/><path class="d" d="M16659.76,1038H16644" transform="translate(-16612.477 -982.832)"/><path class="d" d="M16663,1038h18.916" transform="translate(-16601.525 -982.832)"/><path class="d" d="M16675,1003v119.006" transform="translate(-16594.611 -1003)"/><path class="d" d="M16669,1060h54.379v8.512" transform="translate(-16598.068 -970.154)"/><path class="d" d="M16671.221,1060H16646" transform="translate(-16611.322 -970.154)"/><path class="d" d="M16646.068,1060H16624" transform="translate(-16624 -970.154)"/><path class="d" d="M16624.4,1091.465V1056" transform="translate(-16623.771 -972.459)"/><path class="d" d="M16658,1089.16V1060" transform="translate(-16604.408 -970.154)"/><path class="d" d="M16703.5,1003v89.846" transform="translate(-16578.189 -1003)"/><path class="d" d="M16675,1007h44.766" transform="translate(-16594.611 -1000.695)"/><path class="d" d="M16675,1007h44.766" transform="translate(-16594.611 -991.238)"/><path class="d" d="M16675,1007h44.766" transform="translate(-16594.611 -981.78)"/><path class="d" d="M16675,1007h44.766" transform="translate(-16594.611 -972.323)"/><path class="d" d="M16675,1007h44.766" transform="translate(-16594.611 -962.865)"/><path class="d" d="M16675,1007h44.766" transform="translate(-16594.611 -953.408)"/><path class="d" d="M16675,1007h44.766" transform="translate(-16594.611 -943.95)"/><path class="d" d="M16675,1007h44.766" transform="translate(-16594.611 -934.493)"/><path class="d" d="M16675,1007h44.766" transform="translate(-16594.611 -925.036)"/></g><g transform="translate(1035.993 579.657)"><line class="e" x2="23.644" y2="28.372" transform="translate(1.576)"/><line class="e" x1="23.644" y2="28.372" transform="translate(1.576)"/><line class="e" x2="42.558" y2="28.372" transform="translate(31.525)"/><line class="e" x1="42.558" y2="28.372" transform="translate(31.525)"/><line class="e" x2="47.287" y2="23.644" transform="translate(0 69.355)"/><line class="e" x1="47.287" y2="23.644" transform="translate(0 69.355)"/><line class="e" x2="22.067" y2="23.644" transform="translate(53.592 69.355)"/><line class="e" x1="20.491" y2="23.644" transform="translate(53.592 69.355)"/></g></g><circle class="f" cx="22" cy="22" r="22" transform="translate(832 578)"/><text class="g" transform="translate(848 606)"><tspan x="0" y="0">2</tspan></text><g transform="translate(0 128)"><circle class="f" cx="22" cy="22" r="22" transform="translate(832 578)"/><text class="g" transform="translate(848 606)"><tspan x="0" y="0">2</tspan></text></g><g transform="translate(117 227)"><circle class="f" cx="22" cy="22" r="22" transform="translate(832 578)"/><text class="g" transform="translate(848 606)"><tspan x="0" y="0">2</tspan></text></g><g transform="translate(333 179)"><circle class="f" cx="22" cy="22" r="22" transform="translate(832 578)"/><text class="g" transform="translate(848 606)"><tspan x="0" y="0">1</tspan></text></g><g transform="translate(223 245)"><circle class="f" cx="22" cy="22" r="22" transform="translate(832 578)"/><text class="g" transform="translate(848 606)"><tspan x="0" y="0">1</tspan></text></g><g transform="translate(273 -96)"><circle class="f" cx="22" cy="22" r="22" transform="translate(832 578)"/><text class="g" transform="translate(848 606)"><tspan x="0" y="0">3</tspan></text></g><path class="h" d="M14807.9,1155.3V969.8h-53.1v20.5h-149.7v39h85.1v53.5h23.6v44.1h48.9v45.7h45.2Z" transform="translate(-13792 -552)"/><g transform="translate(112 -102)"><g class="k" transform="matrix(1, 0, 0, 1, -3466, -844)"><circle class="i" cx="22" cy="22" r="22" transform="translate(4298 1422)"/></g><text class="j" transform="translate(848 606)"><tspan x="0" y="0">3</tspan></text></g></g></svg>