<svg xmlns="http://www.w3.org/2000/svg" viewBox="-1581 3027 58 51.753"><defs>
	<style>
		.park-a{fill:#8c5f50;}
		.park-b{fill:#a0d755;}
		.park-c{fill:#8cbe4b;}
		.park-d{fill:#b4e66e;}</style>
	</defs><g transform="translate(-1581 2911.801)">
	<g transform="translate(26.853 116.781)">
		<rect class="park-a" width="3.164" height="30.053" transform="translate(9.491 18.981)"/>
		<circle class="park-b" cx="11.072" cy="11.072" r="11.072" transform="translate(0 0)"/>
		<path class="park-c" d="M228.194,134.805A11.072,11.072,0,0,1,236.1,124.2a11.072,11.072,0,1,0,0,21.215A11.072,11.072,0,0,1,228.194,134.805Z" transform="translate(-221.867 -123.733)"/>
	</g>
	<g transform="translate(42.658 127.853)">
		<rect class="park-a" width="3.164" height="9.491" transform="translate(4.745 28.472)"/>
		<path class="park-b" d="M430.787,208.775a6.327,6.327,0,0,1-12.654,0c0-11.072,2.833-25.308,6.327-25.308S430.787,197.7,430.787,208.775Z" transform="translate(-418.133 -183.467)"/>
		<path class="park-c" d="M422.878,208.774c0-9.081,1.43-20.274,3.39-24.013-.573-.82-1.179-1.3-1.808-1.3-3.494,0-6.327,14.236-6.327,25.308a6.327,6.327,0,0,0,6.327,6.327,6.262,6.262,0,0,0,1.808-.294C424.313,214.026,422.878,211.636,422.878,208.774Z" transform="translate(-418.133 -183.466)"/>
	</g>
	<rect class="park-a" width="3.164" height="12.654" transform="translate(20.563 153.161)"/>
	<rect class="park-a" width="3.164" height="9.491" transform="translate(9.491 156.325)"/>
	<path class="park-b" d="M81.879,145.253a11.072,11.072,0,1,1-22.145,0c0-14.236,4.957-30.053,11.072-30.053S81.879,131.018,81.879,145.253Z" transform="translate(-48.662 -0.001)"/>
	<path class="park-b" d="M27.514,199.207a9.229,9.229,0,0,1-9.491,8.943,9.229,9.229,0,0,1-9.491-8.943c0-11.5,4.249-24.274,9.491-24.274S27.514,187.709,27.514,199.207Z" transform="translate(-6.951 -48.662)"/>
	<path class="park-d" d="M57.033,382.452H.967c-.534,0-.967-.608-.967-1.359s.432-1.359.967-1.359H57.033c.534,0,.967.608.967,1.359S57.568,382.452,57.033,382.452Z" transform="translate(0 -215.5)"/>
	<path class="park-c" d="M66.061,145.253c0-12.985,2.75-27.28,6.327-29.693a3.841,3.841,0,0,0-1.582-.361c-6.115,0-11.072,15.818-11.072,30.053A10.995,10.995,0,0,0,72.388,156.2C68.812,155.43,66.061,150.829,66.061,145.253Z" transform="translate(-48.662)"/>
	<path class="park-c" d="M14.861,199.207c0-10.377,2.021-21.761,4.662-23.889a3.538,3.538,0,0,0-1.5-.385c-5.241,0-9.491,12.776-9.491,24.274a9.229,9.229,0,0,0,9.491,8.943,10.071,10.071,0,0,0,1.5-.122C16.882,207.349,14.861,203.664,14.861,199.207Z" transform="translate(-6.952 -48.662)"/></g></svg>