<svg xmlns="http://www.w3.org/2000/svg" viewBox="-4778 2919 12.504 30"><defs><style>.a{fill:#a1887f;}</style></defs><g transform="translate(-4778 2919)"><path class="a" d="M11.492,30.959H1.011A1.011,1.011,0,0,1,0,29.948V27.732A1.011,1.011,0,0,1,1.011,26.7h.919a.975.975,0,0,0,.975-.975v-8.56a.975.975,0,0,0-.975-.975H1.011A1.011,1.011,0,0,1,0,15.173V12.911A1.011,1.011,0,0,1,1.011,11.9H11.492A1.011,1.011,0,0,1,12.5,12.911v2.216a1.011,1.011,0,0,1-1.011,1.011h-.919a.975.975,0,0,0-.975.975v8.569a.975.975,0,0,0,.975,1.021h.919A1.011,1.011,0,0,1,12.5,27.714v2.216a1.011,1.011,0,0,1-1.011,1.03ZM1.839,29.12h8.835v-.579h-.1A2.823,2.823,0,0,1,7.76,25.728v-8.56a2.823,2.823,0,0,1,2.813-2.813h.1v-.57H1.839v.57h.12a2.823,2.823,0,0,1,2.813,2.813v8.569a2.823,2.823,0,0,1-2.813,2.8h-.12Z" transform="translate(0 -0.959)"/><path class="a" d="M6.437,8.275a4.137,4.137,0,1,1,4.137-4.137A4.137,4.137,0,0,1,6.437,8.275Zm0-6.436a2.3,2.3,0,1,0,2.3,2.3A2.3,2.3,0,0,0,6.437,1.839Z" transform="translate(-0.185)"/></g></svg>