<svg xmlns="http://www.w3.org/2000/svg" viewBox="-4787 3159 30.113 30"><defs><style>.a{fill:#a1887f;}</style></defs><g transform="translate(-4787 3159)"><path class="a" d="M172.619,1.72H161.3a1.038,1.038,0,0,0-1.038,1.038V14.078a1.038,1.038,0,0,0,1.038,1.038h11.321a1.038,1.038,0,0,0,1.038-1.038V2.758A1.038,1.038,0,0,0,172.619,1.72ZM163.468,13.2l1.349-2.726,1.34,2.689Zm8.3-1.311-.755-1.538a1.028,1.028,0,0,0-.943-.575h0a1.028,1.028,0,0,0-.943.594l-1.113,2.358-2.283-4.575a1.075,1.075,0,0,0-1.887,0l-1.708,3.425V3.607h9.594Z" transform="translate(-160.26 -1.72)"/><ellipse class="a" cx="1.406" cy="1.406" rx="1.406" ry="1.406" transform="translate(7.472 3.359)"/><path class="a" d="M190.339,1.72H179.018a1.038,1.038,0,0,0-1.038,1.038V14.078a1.038,1.038,0,0,0,1.038,1.038h11.321a1.038,1.038,0,0,0,1.038-1.038V2.758A1.038,1.038,0,0,0,190.339,1.72ZM181.188,13.2l1.349-2.726,1.34,2.689Zm8.3-1.311-.755-1.538a1.028,1.028,0,0,0-.943-.575h0a1.028,1.028,0,0,0-.943.594l-1.113,2.358-2.283-4.575a1.075,1.075,0,0,0-1.887,0l-1.679,3.415V3.607h9.594Z" transform="translate(-161.263 -1.72)"/><ellipse class="a" cx="1.406" cy="1.406" rx="1.406" ry="1.406" transform="translate(24.189 3.359)"/><path class="a" d="M190.339,19.32H179.018a1.038,1.038,0,0,0-1.038,1.038V31.678a1.038,1.038,0,0,0,1.038,1.038h11.321a1.038,1.038,0,0,0,1.038-1.038V20.358a1.038,1.038,0,0,0-1.038-1.038ZM181.188,30.8l1.34-2.689,1.34,2.689Zm8.3-1.311-.755-1.538a1.028,1.028,0,0,0-.943-.575h0a1.028,1.028,0,0,0-.943.594l-1.094,2.368-2.283-4.575a1.075,1.075,0,0,0-1.887,0l-1.7,3.415V21.207h9.594Z" transform="translate(-161.263 -2.716)"/><ellipse class="a" cx="1.406" cy="1.406" rx="1.406" ry="1.406" transform="translate(24.189 19.972)"/><path class="a" d="M172.619,19.32H161.3a1.038,1.038,0,0,0-1.038,1.038V31.678a1.038,1.038,0,0,0,1.038,1.038h11.321a1.038,1.038,0,0,0,1.038-1.038V20.358a1.038,1.038,0,0,0-1.038-1.038ZM163.468,30.8l1.34-2.689,1.34,2.689Zm8.3-1.311-.755-1.538a1.028,1.028,0,0,0-.943-.575h0a1.028,1.028,0,0,0-.943.594l-1.094,2.368-2.283-4.575a1.075,1.075,0,0,0-1.887,0l-1.708,3.425V21.207h9.594Z" transform="translate(-160.26 -2.716)"/><ellipse class="a" cx="1.406" cy="1.406" rx="1.406" ry="1.406" transform="translate(7.472 19.972)"/></g></svg>