<svg xmlns="http://www.w3.org/2000/svg" viewBox="-1210 3018 58 59.018"><defs>
	<style>
		.shop-gallery-a{fill:#f0785a;}
		.shop-gallery-b{fill:#b35a5b;}
		.shop-gallery-c{fill:#b0d3f0;}
		.shop-gallery-d{fill:#ed7161;}
		.shop-gallery-e{fill:#f0c419;}
		.shop-gallery-f{fill:#f3d55b;}
		.shop-gallery-g{fill:#d36259;}
		.shop-gallery-h{fill:#fff;}
		.shop-gallery-i{fill:#cb8252;}
		.shop-gallery-j{fill:#7f6e5d;}
		.shop-gallery-k{fill:#a0d755;}
	</style>
</defs>
<g transform="translate(-1210.5 3018)">
	<path class="shop-gallery-a" d="M2.5,11V58.825H57.447V11Z" transform="translate(0.035 0.193)"/>
	<rect class="shop-gallery-b" width="28.491" height="23.404" transform="translate(4.57 29.509)"/>
	<rect class="shop-gallery-c" width="24.421" height="19.333" transform="translate(6.605 31.544)"/>
	<path class="shop-gallery-d" d="M15.744,11.193H1.883a.29.29,0,0,1-.279-.369L5.737,1.845A3.169,3.169,0,0,1,8.617,0h9.162Z" transform="translate(0.019 0)"/>
	<path class="shop-gallery-d" d="M43.746,11.193H29.5V0H41.711Z" transform="translate(0.509 0)"/>
	<path class="shop-gallery-e" d="M22.623,25.246h0A7.123,7.123,0,0,1,15.5,18.123V11H29.746v7.123A7.123,7.123,0,0,1,22.623,25.246Z" transform="translate(0.263 0.193)"/>
	<path class="shop-gallery-e" d="M50.623,25.246h0A7.123,7.123,0,0,1,43.5,18.123V11H57.637a.109.109,0,0,1,.109.109v7.014A7.123,7.123,0,0,1,50.623,25.246Z" transform="translate(0.754 0.193)"/>
	<path class="shop-gallery-f" d="M29.746,11.193H15.5L17.535,0H29.746Z" transform="translate(0.263 0)"/>
	<path class="shop-gallery-f" d="M57.419,11.193H43.535L41.5,0h9.162a3.171,3.171,0,0,1,2.881,1.846l4.139,9A.273.273,0,0,1,57.419,11.193Z" transform="translate(0.719 0)"/>
	<path class="shop-gallery-g" d="M8.623,25.246h0A7.123,7.123,0,0,1,1.5,18.123V11.287A.287.287,0,0,1,1.787,11H15.746v7.123A7.123,7.123,0,0,1,8.623,25.246Z" transform="translate(0.018 0.193)"/>
	<path class="shop-gallery-g" d="M36.623,25.246h0A7.123,7.123,0,0,1,29.5,18.123V11H43.746v7.123A7.123,7.123,0,0,1,36.623,25.246Z" transform="translate(0.509 0.193)"/>
	<rect class="shop-gallery-b" width="16.281" height="29.509" transform="translate(37.132 29.509)"/><rect class="shop-gallery-c" width="12.211" height="25.439" transform="translate(39.167 31.544)"/>
	<path class="shop-gallery-h" d="M48.518,47.088A1.017,1.017,0,0,1,47.5,46.07V43.018a1.018,1.018,0,0,1,2.035,0V46.07A1.017,1.017,0,0,1,48.518,47.088Z" transform="translate(0.825 0.737)"/>
	<g transform="translate(16.78 32.561)">
		<path class="shop-gallery-h" d="M17.518,38.105a1.015,1.015,0,0,0,.719-.3l4.07-4.07A1.017,1.017,0,0,0,20.868,32.3l-4.07,4.07a1.018,1.018,0,0,0,.719,1.737Z" transform="translate(-16.5 -32)"/>
		<path class="shop-gallery-h" d="M17.518,43.07a1.015,1.015,0,0,0,.719-.3l2.035-2.035A1.017,1.017,0,1,0,18.833,39.3L16.8,41.333a1.018,1.018,0,0,0,.719,1.737Z" transform="translate(-16.5 -31.877)"/>
		<path class="shop-gallery-h" d="M20.8,37.295a1.063,1.063,0,0,0-.3.722,1.025,1.025,0,0,0,1.018,1.018,1.02,1.02,0,1,0-.722-1.74Z" transform="translate(-16.43 -31.912)"/>
		<path class="shop-gallery-h" d="M22.8,36.79a1.017,1.017,0,0,0,1.439,0l3.053-3.053A1.017,1.017,0,1,0,25.851,32.3L22.8,35.351A1.016,1.016,0,0,0,22.8,36.79Z" transform="translate(-16.394 -32)"/>
		<path class="shop-gallery-h" d="M25.956,37.3,16.8,46.456a1.017,1.017,0,1,0,1.439,1.439l9.158-9.158A1.017,1.017,0,0,0,25.956,37.3Z" transform="translate(-16.5 -31.912)"/>
		<path class="shop-gallery-h" d="M29.24,35.295a1.032,1.032,0,1,0,.3.722A1.065,1.065,0,0,0,29.24,35.295Z" transform="translate(-16.307 -31.947)"/>
	</g>
	<path class="shop-gallery-i" d="M7.621,58.105H1.516L.584,52.514A.442.442,0,0,1,1.02,52H8.639Z" transform="translate(0.001 0.912)"/>
	<rect class="shop-gallery-j" width="2.035" height="11.193" transform="translate(3.553 41.719)"/>
	<path class="shop-gallery-k" d="M8.832,36.828a4.488,4.488,0,0,0,.363-2.487,2.251,2.251,0,0,0-.464-.982,2.1,2.1,0,0,1-.418-1.741,2.682,2.682,0,0,0-.22-1.751,3.216,3.216,0,0,0-2.441-1.616A2.322,2.322,0,0,0,3.62,28.8l-.629.543a2.684,2.684,0,0,0-1.418,1.93,3.007,3.007,0,0,0,.078,1.388,2.326,2.326,0,0,1-.344,1.941,4.836,4.836,0,0,0-.449,4.486,2.709,2.709,0,0,0,.3.522,2.375,2.375,0,0,1,.394,1.978,3.261,3.261,0,0,0-.081.483,7.487,7.487,0,0,0,.236,2.205,3.6,3.6,0,0,0,.9,2.038,2.416,2.416,0,0,0,2.676-.048,5.3,5.3,0,0,0,2.745-3.05,3.807,3.807,0,0,0-.143-2.539,2.429,2.429,0,0,1,.151-2.371A6.759,6.759,0,0,0,8.832,36.828Z" transform="translate(0 0.495)"/></g></svg>