<svg xmlns="http://www.w3.org/2000/svg" viewBox="-4791 3097 33.888 33.888"><defs><style>.a{fill:#a1887f;}</style></defs><g transform="translate(-4791 3109.675) rotate(-45)"><path class="a" d="M16.907,30H1.057A1.057,1.057,0,0,1,0,28.943V3.967l.317-.355L3.929,0H13.948l.346.3,3.631,3.622V28.943A1.057,1.057,0,0,1,16.907,30ZM1.921,28.079H16.042V4.717L13.208,1.883H4.755L1.95,4.717Z" transform="translate(0 0)"/><path class="a" d="M3.343,6.725a3.362,3.362,0,1,1,2.373-.961A3.362,3.362,0,0,1,3.343,6.725Zm0-4.8A1.441,1.441,0,0,0,2.325,4.381a1.47,1.47,0,0,0,2.036,0A1.441,1.441,0,0,0,3.343,1.922Z" transform="translate(5.639 4.351)"/><rect class="a" width="6.695" height="1.921" transform="translate(5.62 14.87)"/><rect class="a" width="6.724" height="1.921" transform="translate(5.62 18.713)"/><rect class="a" width="4.726" height="1.921" transform="translate(5.62 22.555)"/></g></svg>