<svg xmlns="http://www.w3.org/2000/svg" viewBox="-4786 3039 28.893 30"><defs><style>.a{fill:#a1887f;}</style></defs><g transform="translate(-4786 3039)"><path class="a" d="M114.908,11.032H102.431V1.3A1.031,1.031,0,0,0,101.4.27H88.078A1.031,1.031,0,0,0,87,1.3V29.238a1.031,1.031,0,0,0,1.031,1.031h26.83a1.031,1.031,0,0,0,1.031-1.031V12.063A1.031,1.031,0,0,0,114.908,11.032ZM88.875,2.145h11.634V28.394H98.634V25.525H90.75v2.869H88.875Zm25.143,26.249h-1.875V25.525h-7.9v2.869h-1.875V12.907H114Z" transform="translate(-87 -0.269)"/><rect class="a" width="2.944" height="2.944" transform="translate(3.787 9.16)"/><rect class="a" width="2.944" height="2.944" transform="translate(8.747 9.16)"/><rect class="a" width="2.944" height="2.944" transform="translate(3.787 3.835)"/><rect class="a" width="2.944" height="2.944" transform="translate(8.747 3.835)"/><rect class="a" width="2.944" height="2.944" transform="translate(3.787 14.494)"/><rect class="a" width="2.944" height="2.944" transform="translate(8.747 14.494)"/><rect class="a" width="2.944" height="2.944" transform="translate(3.787 19.819)"/><rect class="a" width="2.944" height="2.944" transform="translate(8.747 19.819)"/><rect class="a" width="2.944" height="2.944" transform="translate(17.296 19.819)"/><rect class="a" width="2.944" height="2.944" transform="translate(22.255 19.819)"/><rect class="a" width="2.944" height="2.944" transform="translate(17.296 14.494)"/><rect class="a" width="2.944" height="2.944" transform="translate(22.255 14.494)"/></g></svg>