<svg xmlns="http://www.w3.org/2000/svg" viewBox="-2321 3026 58 42"><defs><style>.credit-card-a{fill:#ccb375;}.credit-card-b{fill:#7a693c;}.credit-card-c{fill:#e74c3d;}.credit-card-d{fill:#f0c41b;}.credit-card-e{fill:#f3d55c;}</style></defs>
<g transform="translate(-2321 3018)">
<path class="credit-card-a" d="M54.783,50H3.217A3.216,3.216,0,0,1,0,46.783V11.217A3.216,3.216,0,0,1,3.217,8H54.783A3.217,3.217,0,0,1,58,11.217V46.783A3.217,3.217,0,0,1,54.783,50"/>
<path class="credit-card-b" d="M15,36H6a1,1,0,0,0,0,2h9a1,1,0,0,0,0-2"/>
<path class="credit-card-b" d="M29,37a1,1,0,0,0-1-1H19a1,1,0,0,0,0,2h9a1,1,0,0,0,1-1"/>
<path class="credit-card-b" d="M7,41H6a1,1,0,0,0,0,2H7a1,1,0,0,0,0-2"/>
<path class="credit-card-b" d="M13,41H11a1,1,0,0,0,0,2h2a1,1,0,0,0,0-2"/>
<path class="credit-card-b" d="M18,41H17a1,1,0,0,0,0,2h1a1,1,0,0,0,0-2"/>
<path class="credit-card-b" d="M24,41H22a1,1,0,0,0,0,2h2a1,1,0,0,0,0-2"/>
<path class="credit-card-b" d="M27.29,41.29a1,1,0,1,0,1.42,0,1.047,1.047,0,0,0-1.42,0"/>
<path class="credit-card-c" d="M46,39a6,6,0,1,1-6-6,6,6,0,0,1,6,6"/>
<path class="credit-card-d" d="M53,39a6,6,0,1,1-6-6,6,6,0,0,1,6,6"/>
<path class="credit-card-d" d="M20.745,28H7.255A1.256,1.256,0,0,1,6,26.745v-9.49A1.256,1.256,0,0,1,7.255,16h13.49A1.255,1.255,0,0,1,22,17.255v9.49A1.255,1.255,0,0,1,20.745,28"/>
<path class="credit-card-e" d="M20.745,29H7.255A2.258,2.258,0,0,1,5,26.745v-9.49A2.258,2.258,0,0,1,7.255,15h13.49A2.258,2.258,0,0,1,23,17.255v9.49A2.258,2.258,0,0,1,20.745,29M7.255,17A.254.254,0,0,0,7,17.255v9.49A.254.254,0,0,0,7.255,27h13.49A.255.255,0,0,0,21,26.745v-9.49A.255.255,0,0,0,20.745,17Z"/>
<path class="credit-card-d" d="M22,17.255A1.255,1.255,0,0,0,20.745,16h-7.49A1.255,1.255,0,0,0,12,17.255v9.49A1.255,1.255,0,0,0,13.255,28h1.49A1.255,1.255,0,0,0,16,26.745v-5.49A1.255,1.255,0,0,1,17.255,20h3.49A1.255,1.255,0,0,0,22,18.745Z"/>
<path class="credit-card-e" d="M14.745,29h-1.49A2.258,2.258,0,0,1,11,26.745v-9.49A2.258,2.258,0,0,1,13.255,15h7.49A2.258,2.258,0,0,1,23,17.255v1.49A2.258,2.258,0,0,1,20.745,21h-3.49a.254.254,0,0,0-.255.255v5.49A2.258,2.258,0,0,1,14.745,29m-1.49-12a.254.254,0,0,0-.255.255v9.49a.254.254,0,0,0,.255.255h1.49A.255.255,0,0,0,15,26.745v-5.49A2.258,2.258,0,0,1,17.255,19h3.49A.255.255,0,0,0,21,18.745v-1.49A.255.255,0,0,0,20.745,17Z"/><line class="credit-card-d" x2="6" transform="translate(16 24)"/><path class="credit-card-e" d="M22,25H16a1,1,0,0,1,0-2h6a1,1,0,0,1,0,2"/><line class="credit-card-d" x1="6" transform="translate(6 20)"/><path class="credit-card-e" d="M12,21H6a1,1,0,0,1,0-2h6a1,1,0,0,1,0,2"/><line class="credit-card-d" x1="6" transform="translate(6 24)"/><path class="credit-card-e" d="M12,25H6a1,1,0,0,1,0-2h6a1,1,0,0,1,0,2"/></g></svg>