<svg xmlns="http://www.w3.org/2000/svg" viewBox="-1950.836 3019 58 55"><defs>
	<style>
		.parad-a{fill:#bdaa91;}
		.parad-b{fill:#dbcdb8;}
		.parad-c{fill:#fff2dc;}</style>
	</defs><g transform="translate(-1950.836 3017.5)"><path class="parad-a" d="M48,18.5,29,7.5l-19,11Z" transform="translate(0 0)"/><path class="parad-b" d="M55,25.5v-3H47v3a1,1,0,0,0,1,1,1,1,0,0,1,1,1v16a1,1,0,0,1-1,1,1,1,0,0,0-1,1v3h8v-3a1,1,0,0,0-1-1,1,1,0,0,1-1-1v-16a1,1,0,0,1,1-1,1,1,0,0,0,1-1" transform="translate(0 0)"/><path class="parad-b" d="M44,25.5v-3H36v3a1,1,0,0,0,1,1,1,1,0,0,1,1,1v16a1,1,0,0,1-1,1,1,1,0,0,0-1,1v3h8v-3a1,1,0,0,0-1-1,1,1,0,0,1-1-1v-16a1,1,0,0,1,1-1,1,1,0,0,0,1-1" transform="translate(0 0)"/><path class="parad-b" d="M33,25.5v-3H25v3a1,1,0,0,0,1,1,1,1,0,0,1,1,1v16a1,1,0,0,1-1,1,1,1,0,0,0-1,1v3h8v-3a1,1,0,0,0-1-1,1,1,0,0,1-1-1v-16a1,1,0,0,1,1-1,1,1,0,0,0,1-1" transform="translate(0 0)"/><path class="parad-b" d="M22,25.5v-3H14v3a1,1,0,0,0,1,1,1,1,0,0,1,1,1v16a1,1,0,0,1-1,1,1,1,0,0,0-1,1v3h8v-3a1,1,0,0,0-1-1,1,1,0,0,1-1-1v-16a1,1,0,0,1,1-1,1,1,0,0,0,1-1" transform="translate(0 0)"/><path class="parad-b" d="M11,25.5v-3H3v3a1,1,0,0,0,1,1,1,1,0,0,1,1,1v16a1,1,0,0,1-1,1,1,1,0,0,0-1,1v3h8v-3a1,1,0,0,0-1-1,1,1,0,0,1-1-1v-16a1,1,0,0,1,1-1,1,1,0,0,0,1-1" transform="translate(0 0)"/><rect class="parad-b" width="58" height="4" transform="translate(0 52.5)"/><rect class="parad-c" width="56" height="4" transform="translate(1 48.5)"/><path class="parad-c" d="M57,22.5H1l2-4H55Z" transform="translate(0 0)"/><path class="parad-b" d="M12,12.5l-2,5.931a.039.039,0,0,0,.06.034l10.3-5.965Z" transform="translate(0 0)"/><path class="parad-b" d="M37.637,12.5l10.3,5.965a.039.039,0,0,0,.06-.034L46,12.5Z" transform="translate(0 0)"/><path class="parad-c" d="M29.062,7.5l8.636,5h6.864c0-6-6.906-11-15.5-11s-15.625,5-15.625,11h6.989Z" transform="translate(0 0)"/></g></svg>