<svg xmlns="http://www.w3.org/2000/svg" viewBox="-4787 2979 30.028 30"><defs><style>.a{fill:#a1887f;}</style></defs><path class="a" d="M48.1,16.674l.648-.648a1.033,1.033,0,0,0,.3-.732v-.46L35.148.98a1.042,1.042,0,0,0-1.464,0l-.648.648L32.378.97a1.042,1.042,0,0,0-1.464,0L19.34,12.516l-.3.347v7.688l9.837,9.818.347.3h7.688L48.768,18.814a1.032,1.032,0,0,0,.3-.732v-.46Zm-12.963,2.14h0l-.084.056-1.37,1.352-4.055-4.055,1.389-1.389a.084.084,0,0,1,.047-.075h0l7.65-7.584,4.055,4.055ZM31.646,2.857l.657.657a1.042,1.042,0,0,0,1.464,0l.648-.657,2.929,2.929-6.937,6.937L26.089,8.4ZM20.88,13.6l3.858-3.858,4.318,4.318L27.7,15.435a1.042,1.042,0,0,0,0,1.464l1.877,1.877L24.775,23.6l-3.9-3.849ZM36.1,28.792H29.966L26.1,24.925l4.815-4.815,2.037,2.037a1.033,1.033,0,0,0,1.464,0l1.38-1.38,4.168,4.168Zm9.818-11.668.939.939L41.3,23.6l-4.168-4.168L44.065,12.5l2.816,2.816-.648.648a1.042,1.042,0,0,0-.31.742Z" transform="translate(-4806.04 2978.33)"/></svg>