<svg xmlns="http://www.w3.org/2000/svg" viewBox="-4782 3219 20.897 30"><defs><style>.a{fill:#a1887f;}</style></defs><g transform="translate(-4782 3219)"><path class="a" d="M218.919,7.228l-4.247-4.247-.337-.291H199.081a1.031,1.031,0,0,0-1.031,1.031V31.659a1.031,1.031,0,0,0,1.031,1.031h18.834a1.031,1.031,0,0,0,1.031-1.031V7.668Zm-1.875,23.587H199.878V4.565H213V7.546a1.031,1.031,0,0,0,1.031,1.031h2.991Z" transform="translate(-198.05 -2.69)"/><rect class="a" width="13.134" height="1.875" transform="translate(3.881 8.822)"/><rect class="a" width="13.134" height="1.875" transform="translate(3.881 12.038)"/><rect class="a" width="13.134" height="1.875" transform="translate(3.881 15.244)"/><rect class="a" width="13.134" height="1.875" transform="translate(3.881 18.459)"/><rect class="a" width="6.459" height="1.875" transform="translate(3.881 21.675)"/></g></svg>