<svg xmlns="http://www.w3.org/2000/svg" viewBox="-4781 3279 18.413 30"><defs><style>.a{fill:#a1887f;}</style></defs><g transform="translate(-4781 3279)"><path class="a" d="M233.359,7a4.219,4.219,0,1,0,4.219,4.219A4.219,4.219,0,0,0,233.359,7Zm0,6.563a2.344,2.344,0,1,1,2.344-2.344A2.344,2.344,0,0,1,233.359,13.563Z" transform="translate(-224.143 -2.05)"/><path class="a" d="M233.026,1.72a9.225,9.225,0,0,0-9.216,9.216c0,3.4,1.509,5.9,3.112,8.541a28.566,28.566,0,0,1,4.247,10.162c.366,1.875,1.481,2.081,1.819,2.081h0c.356,0,1.462-.159,1.875-2.063A30.871,30.871,0,0,1,239.119,19.6c1.669-2.812,3.1-5.222,3.1-8.672a9.225,9.225,0,0,0-9.2-9.206Zm4.491,16.922a32.456,32.456,0,0,0-4.481,10.622h0a30.14,30.14,0,0,0-4.491-10.781c-1.584-2.625-2.812-4.687-2.812-7.575a7.341,7.341,0,0,1,14.672,0c-.047,2.953-1.294,5.063-2.888,7.734Z" transform="translate(-223.81 -1.72)"/></g></svg>