<svg xmlns="http://www.w3.org/2000/svg" viewBox="-4787 2859 30.003 30"><defs><style>.a{fill:#ffab40;}</style></defs><g transform="translate(-4787 2859)"><path class="a" d="M67.073,30.986a1.033,1.033,0,0,1-.939-.676l-2.77-7.37-3.436,1.53a1.033,1.033,0,0,1-1.352-1.324L60.154,19.7,52.746,16.96a1.033,1.033,0,0,1,0-1.934l7.379-2.76L58.577,8.839a1.033,1.033,0,0,1,1.371-1.371l3.417,1.568,2.723-7.379a1.033,1.033,0,0,1,1.934,0l2.76,7.379,3.436-1.568a1.033,1.033,0,0,1,1.371,1.371L74.03,12.265l7.379,2.751a1.033,1.033,0,0,1,0,1.934L74.03,19.7,75.6,23.137a1.033,1.033,0,0,1-1.361,1.333l-3.455-1.53L68.031,30.32A1.033,1.033,0,0,1,67.073,30.986Zm-3.3-10.2a1.127,1.127,0,0,1,1.052.732l2.234,6.009L69.3,21.522a1.127,1.127,0,0,1,1.521-.629l2.112.939-.939-2.112a1.127,1.127,0,0,1,.667-1.493l5.962-2.206-5.962-2.272a1.127,1.127,0,0,1-.676-1.483l.939-2.112-2.112.939a1.127,1.127,0,0,1-1.521-.629L67.054,4.454,64.82,10.463a1.127,1.127,0,0,1-1.521.629l-2.112-.939.939,2.112a1.127,1.127,0,0,1-.629,1.521l-5.962,2.234,6.009,2.234a1.127,1.127,0,0,1,.629,1.521l-.939,2.112,2.112-.939A1.127,1.127,0,0,1,63.778,20.79Zm16.965-4.018Z" transform="translate(-52.076 -0.986)"/><path class="a" d="M67.837,20.032a3.286,3.286,0,1,1,2.319-.939,3.286,3.286,0,0,1-2.319.939Zm0-4.694a1.408,1.408,0,0,0-.986,2.385,1.436,1.436,0,0,0,1.99,0,1.408,1.408,0,0,0-1-2.4Z" transform="translate(-52.84 -1.749)"/></g></svg>