<?xml version="1.0" encoding="utf-8"?>
<!-- Generator: Adobe Illustrator 21.1.0, SVG Export Plug-In . SVG Version: 6.00 Build 0)  -->
<svg version="1.1" id="Layer_1" xmlns="http://www.w3.org/2000/svg" xmlns:xlink="http://www.w3.org/1999/xlink" x="0px" y="0px"
	 viewBox="0 0 1024 768" style="enable-background:new 0 0 1024 768;" xml:space="preserve">
<style type="text/css">
	.st0{opacity:0.6;fill:#FFD180;enable-background:new    ;}
	.st1{opacity:0.6;fill:#9CCC65;enable-background:new    ;}
</style>
<image style="overflow:visible;" width="1690" height="892" xlink:href="./assets/img/image-LC.png" transform="matrix(1 0 0 1 -333 -62)" >
</image>
<path class="st0" d="M-52.3,232.3l61.2-24.4l3.7,2.8l6.8,5.1l4.2-1.2l8.4,5.3v4.7l17.4,11.5l0.5,7l6.2,4.5l3.6-1.6l9,5.8l-0.3,2.9
	l1.7,1.6l24.8,171.5l32.2-14.6l26.4,20.1l7.5-3.9l44.9,32.7l5.6-3.5l25.8,19.1l1.6,19.3l-83.1,44.8l-39.9-31.3l-17.7,8.6l-25.3-20.6
	l-12.5,4.9l-2.8,0.5h-3.1l-90.2-75.3l-2.5-20.7l15.7-7.3L-52.3,232.3z"/>
<path class="st1" d="M226.3,362.6l61.8-29.3l50.9,33.4v6.9l9.4,5.6l3.4-0.6l13.5,8.6l-1.5,2.5l3.6,2.3l10.2,202.3l-53,30.9
	l-19.4-14.8l-6.3,4l-20.7-18.7v-8.2l-3.8-3.8l-6.3,4.5l-10.8-8.4v-7.3l-12.1-9.1L226.3,362.6z"/>
</svg>
