<svg xmlns="http://www.w3.org/2000/svg" viewBox="8439.197 4306.697 15.609 15.606"><defs><style>.a{fill:#ffd180;}</style></defs><path class="a" d="M-17955.625-1925.089l-3.535-3.537-3.535,3.537a2.5,2.5,0,0,1-3.535,0,2.5,2.5,0,0,1,0-3.535l3.535-3.537-3.535-3.537a2.5,2.5,0,0,1,0-3.535,2.5,2.5,0,0,1,3.535,0l3.535,3.537,3.535-3.537a2.5,2.5,0,0,1,3.535,0,2.5,2.5,0,0,1,0,3.535l-3.537,3.537,3.537,3.537a2.5,2.5,0,0,1,0,3.535,2.494,2.494,0,0,1-1.768.73A2.49,2.49,0,0,1-17955.625-1925.089Z" transform="translate(26406.162 6246.661)"/></svg>