<svg xmlns="http://www.w3.org/2000/svg" viewBox="-4703.591 4817.417 31.987 19.009"><defs><style>.a{fill:#a1887f;}</style></defs><path class="a" d="M50.5,26.237a3.023,3.023,0,0,1-.9-.143,4.658,4.658,0,0,1-1.024-.44l-.316-.191a8.026,8.026,0,0,1-1.3-1.167q-.65-.7-1.11-1.253a4.256,4.256,0,0,0-.756-.727h-.057a1.09,1.09,0,0,0-.153.22,2.305,2.305,0,0,0-.172.564,4.247,4.247,0,0,0-.077.957,2.583,2.583,0,0,1-.086.708,1.913,1.913,0,0,1-.249.564l-.105.143a2.191,2.191,0,0,1-1.492.7H40.788a7.93,7.93,0,0,1-2.535-.3,9.728,9.728,0,0,1-2.286-.957,19.907,19.907,0,0,1-1.693-1.09,10.005,10.005,0,0,1-1.224-.957l-.392-.383c-.134-.124-.287-.3-.488-.526s-.583-.708-1.157-1.473-1.148-1.569-1.7-2.42A36.628,36.628,0,0,1,27.4,14.7c-.7-1.377-1.435-2.908-2.114-4.352a2.229,2.229,0,0,1-.172-.794,1.406,1.406,0,0,1,.182-.737l.086-.134a1.98,1.98,0,0,1,1.693-.717h4.448a2.659,2.659,0,0,1,.564.163,2.1,2.1,0,0,1,.421.23l.086.048a1.98,1.98,0,0,1,.727.957c.191.488.43,1.014.689,1.55s.469.957.622,1.244l.249.44c.306.641.593,1.157.851,1.588a7.146,7.146,0,0,0,.66.957,3.338,3.338,0,0,0,.354.354,2.4,2.4,0,0,0,.057-.287c0-.287.1-.7.143-1.215a11.23,11.23,0,0,0,0-1.8,6.476,6.476,0,0,0-.124-1.014,2.545,2.545,0,0,0-.124-.469l-.057-.115a1.244,1.244,0,0,0-.67-.249l-.832-.65a1.282,1.282,0,0,1,.306-1.272,2.87,2.87,0,0,1,.909-.717c.488-.239,1.4-.507,4.18-.478a11.172,11.172,0,0,1,2.315.23,2.8,2.8,0,0,1,.823.335,1.789,1.789,0,0,1,.689.794,3.434,3.434,0,0,1,.23.7,4.477,4.477,0,0,1,.077.957V15.4l.172-.172a6.945,6.945,0,0,0,.708-.957q.469-.689,1.033-1.636a24.64,24.64,0,0,0,1.607-3.377,2.038,2.038,0,0,1,.306-.526,1.607,1.607,0,0,1,.43-.383h0l.134-.086a1.684,1.684,0,0,1,.5-.3,2.21,2.21,0,0,1,.488,0h4.41a3.271,3.271,0,0,1,1.339.077,1.779,1.779,0,0,1,1,.641l.2.363c.277.775.172,1.971-2.487,5.5l-1.024,1.339c-.411.517-.689.89-.842,1.1a6.552,6.552,0,0,0-.411.679l-.057.105.105.239a1.3,1.3,0,0,0,.3.373l.813.756a1.1,1.1,0,0,1,.2.182,16.156,16.156,0,0,1,3.118,3.644,1.1,1.1,0,0,0,.134.249,2.669,2.669,0,0,1,.182.65,2.162,2.162,0,0,1,0,.957,1.693,1.693,0,0,1-.823,1,2.7,2.7,0,0,1-1.416.335l-3.951.048Zm-5.548-5.95a2.114,2.114,0,0,1,1.244.459,6.17,6.17,0,0,1,1.129,1.071q.43.517,1.033,1.167a6.457,6.457,0,0,0,.957.87l.258.153a2.87,2.87,0,0,0,.6.249.842.842,0,0,0,.392.057h.182l4.008-.086a1.473,1.473,0,0,0,.392,0,1.483,1.483,0,0,0,0-.2v-.077A14.8,14.8,0,0,0,52.324,20.7l-.077-.057-.957-.842a3.185,3.185,0,0,1-.717-.957,4.515,4.515,0,0,1-.258-.689,1.913,1.913,0,0,1,.277-1.358,8.523,8.523,0,0,1,.536-.87q.239-.344.89-1.157l1-1.31A12.751,12.751,0,0,0,55.146,9.88a2.009,2.009,0,0,0-.488,0H49.875A27.739,27.739,0,0,1,48.144,13.5c-.4.679-.775,1.253-1.1,1.741a8.772,8.772,0,0,1-.957,1.177,6.506,6.506,0,0,1-.7.631,1.473,1.473,0,0,1-1.2.344l-.287-.067-.287-.124a1.99,1.99,0,0,1-.67-.727,2.669,2.669,0,0,1-.287-.957,5.488,5.488,0,0,1-.057-.727V10.1a2.659,2.659,0,0,0,0-.517,1.512,1.512,0,0,0-.1-.306.655.655,0,0,1-.21-.057,9.566,9.566,0,0,0-1.913-.172,19.007,19.007,0,0,0-2.535.105,2.286,2.286,0,0,1,.23.268l.316.363a3.692,3.692,0,0,1,.3.957,8.264,8.264,0,0,1,.163,1.291,13.047,13.047,0,0,1,0,2.095q-.086.851-.153,1.32a3.434,3.434,0,0,1-.306,1.014,3.826,3.826,0,0,1-.277.488,1.177,1.177,0,0,1-.411.354,1.77,1.77,0,0,1-1.913-.21,4.706,4.706,0,0,1-.823-.756,8.81,8.81,0,0,1-.851-1.205c-.3-.488-.612-1.062-.957-1.712l-.23-.411c-.163-.306-.383-.746-.67-1.32s-.536-1.138-.746-1.684l-.048-.077-.1-.048H27.157c.574,1.32,1.215,2.65,1.913,3.912s1.349,2.43,1.913,3.233,1.071,1.588,1.617,2.305.9,1.177,1.081,1.377l.383.421.373.363a8.427,8.427,0,0,0,.957.813,17.886,17.886,0,0,0,1.53.957A7.825,7.825,0,0,0,38.76,24a6.141,6.141,0,0,0,1.98.23h1.942a.631.631,0,0,0,0-.163,6.074,6.074,0,0,1,.124-1.416,4.056,4.056,0,0,1,.373-1.09,2.927,2.927,0,0,1,.5-.679,1.99,1.99,0,0,1,.517-.4l.239-.105a1.607,1.607,0,0,1,.517-.086ZM42.73,24.171Zm9.508-3.52a.727.727,0,0,0,.143.1Zm-.2-.249a.861.861,0,0,0,.182.239ZM55.385,9.88Zm-5.51,0Z" transform="translate(-4728.7 4810.19)"/></svg>