<svg xmlns="http://www.w3.org/2000/svg" viewBox="-136.4 3141.889 291.239 334.011"><defs><style>.a{fill:#ffd180;opacity:0.6;}</style></defs><path class="a" d="M3110.374,365.411,3171.62,341l3.683,2.763,6.8,5.1,4.169-1.154,8.414,5.348v4.719l17.386,11.533.5,7,6.232,4.536,3.567-1.636,9.016,5.831-.315,2.869,1.7,1.6L3257.6,561.032l32.169-14.621,26.4,20.1,7.492-3.906,44.907,32.706,5.6-3.5,25.8,19.1,1.638,19.329-83.138,44.771-39.9-31.314-17.7,8.614-25.3-20.6-12.5,4.9-2.8.5h-3.1l-90.2-75.3-2.542-20.7,15.743-7.3Z" transform="translate(-3246.774 2800.889)"/></svg>