<svg xmlns="http://www.w3.org/2000/svg" viewBox="-4588.24 4815.505 29.971 21.637"><defs><style>.a{fill:#a1887f;}</style></defs><path class="a" d="M90.67,26.347q-3.262,0-5.653-.105t-3.166-.115l-1.387-.1a8.437,8.437,0,0,1-.957-.182,5.615,5.615,0,0,1-.957-.392,4.113,4.113,0,0,1-1.148-.832,3.826,3.826,0,0,1-.316-.373,5.156,5.156,0,0,1-.574-1.119,6.935,6.935,0,0,1-.526-1.884c-.086-.679-.153-1.416-.2-2.2s-.077-1.377-.086-1.817V14.457a34.351,34.351,0,0,1,.287-4.687,7.232,7.232,0,0,1,.45-1.789,4.783,4.783,0,0,1,.65-1.215l.22-.268a4.782,4.782,0,0,1,.593-.555,4.056,4.056,0,0,1,.641-.4l.5-.23a3.09,3.09,0,0,1,.641-.182l.344-.067.469-.077h.354c2.564-.182,5.883-.277,9.814-.277,1.751,0,3.472,0,5.108.067s2.87.1,3.635.153l1.129.057h.325l.478.067.335.067a3.118,3.118,0,0,1,.641.182l.5.23a4.045,4.045,0,0,1,.641.4,4.7,4.7,0,0,1,.574.526,3.893,3.893,0,0,1,.306.363,5.2,5.2,0,0,1,.574,1.119,6.945,6.945,0,0,1,.478,1.837c.086.689.153,1.425.2,2.2s.077,1.377.086,1.817v2.774a34.348,34.348,0,0,1-.287,4.668,7.251,7.251,0,0,1-.45,1.789,4.716,4.716,0,0,1-.65,1.215l-.22.268a4.716,4.716,0,0,1-.612.564,3.587,3.587,0,0,1-.66.4l-.478.21a3.108,3.108,0,0,1-.641.182l-.363.067-.45.1H100.5C97.93,26.242,94.6,26.347,90.67,26.347Zm0-19.724c-3.884,0-7.165.1-9.747.277h-.5l-.4.077a1.177,1.177,0,0,0-.21.115l-.383.172a2.1,2.1,0,0,0-.335.21,2.764,2.764,0,0,0-.335.306L78.579,8a3.176,3.176,0,0,0-.354.717,5.328,5.328,0,0,0-.325,1.33,32.428,32.428,0,0,0-.277,4.41v2.764a14.328,14.328,0,0,0,.086,1.722c.086.765.115,1.435.191,2.076a5.031,5.031,0,0,0,.344,1.33,5.125,5.125,0,0,0,.335.717l.153.182a2.19,2.19,0,0,0,.631.459,3.826,3.826,0,0,0,.622.268,6.352,6.352,0,0,0,.737.134L82,24.233c.478,0,1.511.067,3.09.115s3.453.077,5.605.105c3.874,0,7.155-.1,9.738-.3h.5l.392-.077a1.244,1.244,0,0,0,.249-.067l.4-.182a1.665,1.665,0,0,0,.306-.191,2.727,2.727,0,0,0,.335-.306l.182-.22a3.148,3.148,0,0,0,.354-.717,5.347,5.347,0,0,0,.325-1.32,32.525,32.525,0,0,0,.277-4.41V13.836a14.328,14.328,0,0,0-.086-1.722c-.086-.765-.105-1.425-.191-2.076a5.6,5.6,0,0,0-.689-2.047l-.163-.134a2.927,2.927,0,0,0-.363-.335,2.086,2.086,0,0,0-.335-.21l-.383-.172a1.234,1.234,0,0,0-.249-.067L100.905,7h-.249L99.289,6.91c-.756-.048-1.913-.105-3.568-.143S92.4,6.623,90.67,6.623ZM87.877,20.187l-1.014-.564V10.908l.507-.363a1.043,1.043,0,0,1,1.033,0l7.279,3.826a1.052,1.052,0,0,1,0,1.913Zm.851-7.318v4.725l4.544-2.344Z" transform="translate(-4663.939 4810.795)"/></svg>